<?xml version="1.0" encoding="utf-8"?><svg xml:space="preserve" viewBox="0 0 100 100" y="0" x="0" xmlns="http://www.w3.org/2000/svg" id="圖層_1" version="1.1" width="128px" height="128px" xmlns:xlink="http://www.w3.org/1999/xlink" style="width:100%;height:100%;background-size:initial;background-repeat-y:initial;background-repeat-x:initial;background-position-y:initial;background-position-x:initial;background-origin:initial;background-image:initial;background-color:rgb(241, 242, 243);background-clip:initial;background-attachment:initial;animation-play-state:paused" ><g class="ldl-scale" style="transform-origin:50% 50%;transform:rotate(0deg) scale(1, 1);animation-play-state:paused" ><path fill="#e15b64" d="M76.8 46.7l-12.1 2.2c-.5-4.5-5-10-13.4-15.9-.7-.9-.6-2.1.3-2.8.7-.5 1.6-.5 2.2 0l23 16.5z" style="fill:rgb(27, 57, 78);animation-play-state:paused" ></path>
<path fill="#333" d="M38.4 44.9H17c0-2.6 2.1-4.7 4.7-4.7h12.1c2.5 0 4.6 2.1 4.6 4.7z" style="fill:rgb(33, 33, 33);animation-play-state:paused" ></path>
<path fill="#f47e60" d="M87.8 54c-.2-.4-.3-.7-.5-1.1-.7-1.5-1.4-3-2.5-4.2-2.3-2.7-5.8-4.2-9.3-4.3-4.2-.1-8.4 0-12.6 0H15.5c-3.1 0-5.7 2.2-6.2 5.2 0 .1-.1.2-.1.3l-.6 3.9-.8 5.4c0 2.2 1.8 4.1 4.1 4.1H89c.7 0 1.9.2 1.6-.8-.7-2.9-1.7-5.7-2.8-8.5z" style="fill:rgb(207, 216, 220);animation-play-state:paused" ></path>
<path fill="#c33737" d="M13.5 49.6h-4c-.3 0-.5.2-.5.4l-.5 3.4c0 .3.2.5.4.5h4.6c1.1 0 1.9-.8 1.9-1.9v-.5c0-1-.9-1.9-1.9-1.9z" style="fill:rgb(14, 29, 40);animation-play-state:paused" ></path>
<path fill="#e0e0e0" d="M88 51.5c-.3-1.1-1.3-1.9-2.5-1.9H84c-.8 0-1.4.6-1.4 1.3v1.6c0 .7.6 1.3 1.4 1.3h3.1c.8 0 1.4-.8 1.2-1.5l-.3-.8z" style="fill:rgb(255, 255, 255);animation-play-state:paused" ></path>
<path fill="#e15b64" d="M90.3 58.9H7.9s-.4 0-.4.4c0 2.4 1.7 4.1 4.2 4.1h78.5c1.2 0 2.2-1 2.2-2.2.1-1.3-.9-2.3-2.1-2.3z" style="fill:rgb(27, 57, 78);animation-play-state:paused" ></path>
<g style="animation-play-state:paused" ><circle fill="#fff" r="7.5" cy="61.2" cx="23.9" style="fill:rgb(255, 255, 255);animation-play-state:paused" ></circle>
<path fill="#333" d="M23.9 55.3c3.3 0 6 2.7 6 6s-2.7 6-6 6-6-2.7-6-6c0-3.4 2.7-6 6-6m0-3c-5 0-9 4-9 9s4 9 9 9 9-4 9-9-4.1-9-9-9z" style="fill:rgb(33, 33, 33);animation-play-state:paused" ></path></g>
<path stroke-miterlimit="10" stroke-linecap="round" stroke-width="3" stroke="#e15b64" fill="#fff" d="M26.3 49c3.6.7 6.7 2.8 8.7 5.7" style="stroke:rgb(27, 57, 78);fill:rgb(255, 255, 255);animation-play-state:paused" ></path>
<g style="animation-play-state:paused" ><circle fill="#e6e6e6" r="4" cy="61.2" cx="23.9" style="fill:rgb(230, 230, 230);animation-play-state:paused" ></circle></g>
<g style="animation-play-state:paused" ><circle fill="#fff" r="7.5" cy="61.2" cx="71.5" style="fill:rgb(255, 255, 255);animation-play-state:paused" ></circle>
<path fill="#333" d="M71.5 55.3c3.3 0 6 2.7 6 6s-2.7 6-6 6-6-2.7-6-6c0-3.4 2.7-6 6-6m0-3c-5 0-9 4-9 9s4 9 9 9 9-4 9-9-4-9-9-9z" style="fill:rgb(33, 33, 33);animation-play-state:paused" ></path></g>
<g style="animation-play-state:paused" ><circle fill="#e6e6e6" r="4" cy="61.2" cx="71.5" style="fill:rgb(230, 230, 230);animation-play-state:paused" ></circle></g>
<path fill="#e15b64" d="M58.7 56.6H35.2c-.7 0-1.2-.5-1.2-1.2v-.3c0-.7.5-1.2 1.2-1.2h23.5c.7 0 1.2.5 1.2 1.2v.3c0 .7-.5 1.2-1.2 1.2z" style="fill:rgb(27, 57, 78);animation-play-state:paused" ></path>
<metadata xmlns:d="https://loading.io/stock/" style="animation-play-state:paused" ><d:name style="animation-play-state:paused" >convertible</d:name>


<d:tags style="animation-play-state:paused" >car,sedan,cabrio,coupe,wheel,drive,vehicle,convertible,transportation</d:tags>


<d:license style="animation-play-state:paused" >by</d:license>


<d:slug style="animation-play-state:paused" >1boqpo</d:slug></metadata></g><!-- generated by https://loading.io/ --></svg>